<svg xmlns="http://www.w3.org/2000/svg" width="14.141" height="9.545" viewBox="0 0 14.141 9.545">
  <g id="Group_370" data-name="Group 370" transform="translate(-1483 -7442)">
    <path id="Icon_zocial-email" data-name="Icon zocial-email" d="M.072,12.768V4.913q0-.014.041-.259L4.736,8.609.127,13.041a1.156,1.156,0,0,1-.055-.273ZM.686,4.109a.588.588,0,0,1,.232-.041h12.45a.772.772,0,0,1,.245.041L8.976,8.077l-.614.491-1.214,1-1.214-1-.614-.491ZM.7,13.572l4.65-4.459,1.8,1.459,1.8-1.459,4.65,4.459a.655.655,0,0,1-.232.041H.917A.618.618,0,0,1,.7,13.572ZM9.563,8.609l4.609-3.954a.814.814,0,0,1,.041.259v7.854a1.045,1.045,0,0,1-.041.273Z" transform="translate(1482.928 7437.932)" fill="#fff"/>
  </g>
</svg>
