<svg xmlns="http://www.w3.org/2000/svg" xmlns:xlink="http://www.w3.org/1999/xlink" width="14.934" height="14.934" viewBox="0 0 14.934 14.934">
  <defs>
    <linearGradient id="linear-gradient" x1="0.5" y1="-0.269" x2="0.5" y2="1.594" gradientUnits="objectBoundingBox">
      <stop offset="0" stop-color="#f57f3d"/>
      <stop offset="1" stop-color="#d7392f"/>
    </linearGradient>
  </defs>
  <g id="linkedin" transform="translate(-465 -7884.586)">
    <path id="Icon_awesome-linkedin-in" data-name="Icon awesome-linkedin-in" d="M3.343,14.934H.247V4.964h3.1ZM1.793,3.6a1.8,1.8,0,1,1,1.793-1.81A1.808,1.808,0,0,1,1.793,3.6ZM14.93,14.934H11.841V10.081c0-1.157-.023-2.64-1.61-2.64C8.622,7.441,8.375,8.7,8.375,10v4.937H5.282V4.964H8.252v1.36h.043a3.253,3.253,0,0,1,2.929-1.61c3.133,0,3.709,2.063,3.709,4.743v5.477Z" transform="translate(465 7884.586)" fill="url(#linear-gradient)"/>
  </g>
</svg>
