<svg xmlns="http://www.w3.org/2000/svg" xmlns:xlink="http://www.w3.org/1999/xlink" width="373.028" height="91.087" viewBox="0 0 373.028 91.087">
  <defs>
    <radialGradient id="radial-gradient" cx="0.373" cy="0.494" r="0.576" gradientTransform="translate(-0.064) scale(1.139 1)" gradientUnits="objectBoundingBox">
      <stop offset="0" stop-color="#fff"/>
      <stop offset="0.344" stop-color="#f9ae41"/>
      <stop offset="0.72" stop-color="#ee4036"/>
      <stop offset="1" stop-color="#64130c"/>
    </radialGradient>
    <radialGradient id="radial-gradient-2" cx="0.323" cy="0.505" r="0.501" gradientTransform="translate(39.349) scale(1.863 1)" xlink:href="#radial-gradient"/>
    <radialGradient id="radial-gradient-3" cx="0.324" cy="0.505" r="1.116" gradientTransform="translate(-20.647) scale(0.53 1)" xlink:href="#radial-gradient"/>
    <radialGradient id="radial-gradient-4" cx="0.322" cy="0.506" r="1.09" gradientTransform="translate(-38.065) scale(0.545 1)" xlink:href="#radial-gradient"/>
    <radialGradient id="radial-gradient-5" cx="0.324" cy="0.505" r="0.549" gradientTransform="translate(14.945) scale(1.484 1)" xlink:href="#radial-gradient"/>
    <radialGradient id="radial-gradient-6" cx="0.324" cy="0.507" r="1.362" gradientTransform="translate(-24.896) scale(0.424 1)" xlink:href="#radial-gradient"/>
    <radialGradient id="radial-gradient-7" cx="0.323" cy="0.505" r="1.075" gradientTransform="translate(-14.967) scale(0.554 1)" xlink:href="#radial-gradient"/>
    <radialGradient id="radial-gradient-8" cx="0.324" cy="0.506" r="0.783" gradientTransform="translate(-5.002) scale(0.822 1)" xlink:href="#radial-gradient"/>
    <radialGradient id="radial-gradient-9" cx="0.324" cy="0.505" r="1.306" gradientTransform="translate(-20.914) scale(0.444 1)" xlink:href="#radial-gradient"/>
    <radialGradient id="radial-gradient-10" cx="0.323" cy="0.506" r="0.672" gradientTransform="translate(0.834) scale(1.028 1)" xlink:href="#radial-gradient"/>
    <radialGradient id="radial-gradient-11" cx="0.324" cy="0.505" r="0.411" gradientTransform="translate(320.206) scale(7.651 1)" xlink:href="#radial-gradient"/>
    <radialGradient id="radial-gradient-12" cx="0.324" cy="0.507" r="1.774" gradientTransform="translate(-22.506) scale(0.319 1)" xlink:href="#radial-gradient"/>
    <radialGradient id="radial-gradient-13" cx="0.321" cy="0.515" r="2.685" gradientTransform="translate(-119.101) scale(0.208 1)" xlink:href="#radial-gradient"/>
    <radialGradient id="radial-gradient-14" cx="0.322" cy="0.508" r="0.978" gradientTransform="translate(-30.127) scale(0.619 1)" xlink:href="#radial-gradient"/>
    <radialGradient id="radial-gradient-15" cx="0.319" cy="0.512" r="1.94" gradientTransform="translate(-213.936) scale(0.29 1)" xlink:href="#radial-gradient"/>
    <radialGradient id="radial-gradient-16" cx="0.324" cy="0.505" r="0.609" gradientTransform="translate(8.772) scale(1.213 1)" xlink:href="#radial-gradient"/>
    <radialGradient id="radial-gradient-17" cx="0.313" cy="0.513" r="1.99" gradientTransform="translate(-212.809) scale(0.283 1)" xlink:href="#radial-gradient"/>
    <radialGradient id="radial-gradient-18" cx="0.323" cy="0.505" r="0.738" gradientTransform="translate(-4.035) scale(0.894 1)" xlink:href="#radial-gradient"/>
    <radialGradient id="radial-gradient-19" cx="0.323" cy="0.512" r="2.747" gradientTransform="translate(-40.455) scale(0.203 1)" xlink:href="#radial-gradient"/>
    <radialGradient id="radial-gradient-20" cx="0.324" cy="0.505" r="0.546" gradientTransform="translate(11.283) scale(1.503 1)" xlink:href="#radial-gradient"/>
    <radialGradient id="radial-gradient-21" cx="0.324" cy="0.506" r="0.649" gradientTransform="translate(4.185) scale(1.087 1)" xlink:href="#radial-gradient"/>
    <radialGradient id="radial-gradient-22" cx="0.317" cy="0.504" r="1.043" gradientTransform="translate(-97.586) scale(0.574 1)" xlink:href="#radial-gradient"/>
    <radialGradient id="radial-gradient-23" cx="0.323" cy="0.505" r="0.643" gradientTransform="translate(5.835) scale(1.104 1)" xlink:href="#radial-gradient"/>
    <radialGradient id="radial-gradient-24" cx="0.324" cy="0.505" r="0.464" gradientTransform="translate(18.891) scale(2.428 1)" xlink:href="#radial-gradient"/>
    <radialGradient id="radial-gradient-25" cx="0.322" cy="0.506" r="0.855" gradientTransform="translate(-19.592) scale(0.733 1)" xlink:href="#radial-gradient"/>
    <radialGradient id="radial-gradient-26" cx="0.324" cy="0.505" r="0.492" gradientTransform="translate(31.59) scale(1.966 1)" xlink:href="#radial-gradient"/>
    <radialGradient id="radial-gradient-27" cx="0.323" cy="0.505" r="0.481" gradientTransform="translate(43.088) scale(2.117 1)" xlink:href="#radial-gradient"/>
    <radialGradient id="radial-gradient-28" cx="0.312" cy="0.51" r="1.921" gradientTransform="translate(-344.661) scale(0.294 1)" xlink:href="#radial-gradient"/>
    <radialGradient id="radial-gradient-29" cx="0.324" cy="0.505" r="0.821" gradientTransform="translate(-5.972) scale(0.773 1)" xlink:href="#radial-gradient"/>
    <radialGradient id="radial-gradient-30" cx="0.323" cy="0.507" r="1.123" gradientTransform="translate(-43.443) scale(0.526 1)" xlink:href="#radial-gradient"/>
    <radialGradient id="radial-gradient-31" cx="0.32" cy="0.518" r="2.685" gradientTransform="translate(-141.733) scale(0.208 1)" xlink:href="#radial-gradient"/>
    <radialGradient id="radial-gradient-32" cx="0.323" cy="0.505" r="0.565" gradientTransform="translate(19.994) scale(1.399 1)" xlink:href="#radial-gradient"/>
    <radialGradient id="radial-gradient-33" cx="0.323" cy="0.505" r="0.59" gradientTransform="translate(17.412) scale(1.283 1)" xlink:href="#radial-gradient"/>
    <radialGradient id="radial-gradient-34" cx="0.306" cy="-0.34" r="1.413" gradientTransform="translate(0.255) scale(0.565 1)" xlink:href="#radial-gradient"/>
    <radialGradient id="radial-gradient-35" cx="0.795" cy="0.083" r="0.651" gradientTransform="translate(-3.653) scale(0.647 1)" xlink:href="#radial-gradient"/>
    <radialGradient id="radial-gradient-36" cx="0.478" cy="0.999" r="1.308" gradientTransform="translate(0.18) scale(0.692 1)" xlink:href="#radial-gradient"/>
    <radialGradient id="radial-gradient-37" cx="0.39" cy="0.608" r="0.929" gradientTransform="translate(-2.288) scale(0.465 1)" xlink:href="#radial-gradient"/>
    <radialGradient id="radial-gradient-38" cx="0.284" cy="0.534" r="1.277" gradientTransform="translate(0.202) scale(0.46 1)" xlink:href="#radial-gradient"/>
    <radialGradient id="radial-gradient-39" cx="0.332" cy="0.592" r="1.989" gradientTransform="translate(-5.149) scale(0.24 1)" xlink:href="#radial-gradient"/>
    <radialGradient id="radial-gradient-40" cx="0.266" cy="0.373" r="1.292" gradientTransform="translate(-0.044) scale(1.128 1)" gradientUnits="objectBoundingBox">
      <stop offset="0" stop-color="#fff"/>
      <stop offset="0.306" stop-color="#a5a7aa"/>
      <stop offset="0.634" stop-color="#363636"/>
      <stop offset="0.78" stop-color="#d0d1d2"/>
      <stop offset="1" stop-color="#0d0c0c"/>
    </radialGradient>
    <radialGradient id="radial-gradient-41" cx="0.666" cy="0.512" r="3.021" gradientTransform="translate(-3.32) scale(0.337 1)" xlink:href="#radial-gradient"/>
    <radialGradient id="radial-gradient-42" cx="-0.165" cy="-0.169" r="1.085" gradientTransform="translate(0)" gradientUnits="objectBoundingBox">
      <stop offset="0" stop-color="#fff"/>
      <stop offset="1" stop-color="#fff" stop-opacity="0"/>
    </radialGradient>
    <radialGradient id="radial-gradient-43" cx="0.492" cy="0.549" r="0.428" gradientTransform="translate(-0.181) scale(1.302 1)" xlink:href="#radial-gradient-42"/>
    <linearGradient id="linear-gradient" x1="0.5" x2="0.5" y2="1" gradientUnits="objectBoundingBox">
      <stop offset="0" stop-color="#f57f3d"/>
      <stop offset="1" stop-color="#d7392f"/>
    </linearGradient>
    <linearGradient id="linear-gradient-2" x1="0.5" x2="0.5" y2="1" gradientUnits="objectBoundingBox">
      <stop offset="0" stop-color="#e3eaf2"/>
      <stop offset="1" stop-color="#464c4f"/>
    </linearGradient>
  </defs>
  <g id="Logo_Consept" data-name="Logo Consept" transform="translate(-18.23 -9.256)">
    <g id="Group_4" data-name="Group 4" transform="translate(18.23 9.256)">
      <path id="Path_1" data-name="Path 1" d="M90.456,65.769a8.1,8.1,0,0,0-1.113-4.127,10.708,10.708,0,0,1-7.1,2.691,1.272,1.272,0,0,1,0-2.544A8.211,8.211,0,0,0,87.5,47.272a1.268,1.268,0,0,1-.363-1.454,8.211,8.211,0,1,0-15.82-3.081,1.272,1.272,0,1,1-2.544,0A10.763,10.763,0,0,1,78.838,32.01a5.506,5.506,0,0,0-2.558-7.877,1.359,1.359,0,0,1-.222-.089,5.5,5.5,0,0,0-6.906,2.744,1.271,1.271,0,0,1-2.287-1.108,8.1,8.1,0,0,1,5.381-4.313c-3.24-1.977-6.432-3.1-8.981-3.1a4.154,4.154,0,0,0-4.149,4.149V33.433a6.662,6.662,0,0,1,4.149-1.449,1.272,1.272,0,1,1,0,2.544,4.154,4.154,0,0,0-4.149,4.149V80.623a1.245,1.245,0,0,1-.049.341c.031.35.049.7.049,1.064A9.562,9.562,0,0,0,77.149,86.47a1.251,1.251,0,0,1,.793-.634,9.554,9.554,0,0,0,6.884-11.148,1.273,1.273,0,0,1,.727-1.414A8.221,8.221,0,0,0,90.456,65.769ZM75.469,73.81a8.222,8.222,0,0,0-8.214,8.214,1.272,1.272,0,0,1-2.544,0,10.766,10.766,0,0,1,6.729-9.969,8.229,8.229,0,0,0-8.169-9.083,1.272,1.272,0,0,1,0-2.544A10.764,10.764,0,0,1,74.024,71.182c0,.062,0,.124,0,.186a11.077,11.077,0,0,1,1.441-.1,1.272,1.272,0,0,1,1.272,1.272A1.258,1.258,0,0,1,75.469,73.81Zm4.065-14.9a8.055,8.055,0,0,1-7.952-6.84,10.677,10.677,0,0,1-6.5-3.16,1.269,1.269,0,1,1,1.813-1.778,8.14,8.14,0,0,0,5.869,2.465,8.222,8.222,0,0,0,8.214-8.214,1.272,1.272,0,1,1,2.544,0,10.769,10.769,0,0,1-9.353,10.661,5.513,5.513,0,0,0,5.377,4.326,1.272,1.272,0,0,1,1.272,1.272A1.288,1.288,0,0,1,79.534,58.908ZM52.441,37.4a6.645,6.645,0,0,1,4.149,1.449V22.418a4.154,4.154,0,0,0-4.149-4.149c-2.549,0-5.74,1.121-8.981,3.1a8.091,8.091,0,0,1,5.381,4.313,1.271,1.271,0,1,1-2.287,1.108,5.5,5.5,0,0,0-6.906-2.744,1.359,1.359,0,0,1-.222.089,5.506,5.506,0,0,0-2.558,7.877A10.766,10.766,0,0,1,46.932,42.737a1.272,1.272,0,0,1-2.544,0,8.214,8.214,0,1,0-15.825,3.081,1.27,1.27,0,0,1-.363,1.454,8.211,8.211,0,0,0,5.262,14.517,1.272,1.272,0,1,1,0,2.544,10.708,10.708,0,0,1-7.1-2.691,8.208,8.208,0,0,0,3.772,11.631,1.268,1.268,0,0,1,.727,1.414,9.554,9.554,0,0,0,6.884,11.148,1.279,1.279,0,0,1,.793.634A9.562,9.562,0,1,0,49.485,72.8a1.269,1.269,0,1,1,.66-2.451,12.1,12.1,0,0,1,6.423,4.278V44.094a4.154,4.154,0,0,0-4.149-4.149,1.27,1.27,0,1,1,.022-2.54ZM48.377,65.681a8.222,8.222,0,0,0-8.214,8.214,8.089,8.089,0,0,0,.044.869,10.766,10.766,0,0,1,6.729,9.969,1.272,1.272,0,1,1-2.544,0,8.222,8.222,0,0,0-8.214-8.214,1.272,1.272,0,0,1,0-2.544,11.024,11.024,0,0,1,1.441.1c0-.062,0-.124,0-.186A10.764,10.764,0,0,1,48.368,63.132a1.274,1.274,0,0,1,.009,2.549Zm3.156-17.194a1.269,1.269,0,0,1,1.813,1.778,10.642,10.642,0,0,1-6.5,3.16,8.058,8.058,0,0,1-7.952,6.84,1.272,1.272,0,1,1,0-2.544,5.517,5.517,0,0,0,5.377-4.326,10.765,10.765,0,0,1-9.353-10.661,1.272,1.272,0,1,1,2.544,0,8.222,8.222,0,0,0,8.214,8.214A8.13,8.13,0,0,0,51.533,48.486Zm3.954-32.017a6.984,6.984,0,0,1,5.293-2.429c4.2,0,9.681,2.376,14.69,6.365a8.476,8.476,0,0,1,2.677,1.835,7.619,7.619,0,0,0-.869-.443c-4.774-3.8-10-6.068-14-6.068A6.678,6.678,0,0,0,57.858,18.5,6.735,6.735,0,0,0,55.487,16.469Zm21.2,74.651a12.676,12.676,0,0,1-20.936-.727,12.177,12.177,0,0,0,2.11-2.979A12.1,12.1,0,0,0,76.684,91.12Zm-24.3,1.751A12.675,12.675,0,0,1,32.76,90a12.72,12.72,0,0,1-8.848-12.092,12.588,12.588,0,0,1,.093-1.529,11.29,11.29,0,0,1-5.776-9.841,11.173,11.173,0,0,1,1.99-6.4,11.265,11.265,0,0,1,1.365-14.415,11.123,11.123,0,0,1-.51-3.347,11.3,11.3,0,0,1,9.131-11.073,8.444,8.444,0,0,1,4.517-10.9c5.009-3.989,10.488-6.365,14.69-6.365a6.974,6.974,0,0,1,4.827,1.946,6.652,6.652,0,0,0-1.8-.253c-4.007,0-9.229,2.265-14,6.068A8.058,8.058,0,0,0,33.567,29.2a7.97,7.97,0,0,0,.576,2.992A10.742,10.742,0,0,0,25.93,45.938a10.736,10.736,0,0,0-1.3,13.737,10.646,10.646,0,0,0-1.9,6.1,10.764,10.764,0,0,0,5.505,9.38,12.323,12.323,0,0,0-.089,1.458,12.116,12.116,0,0,0,8.431,11.525,12.045,12.045,0,0,0,15.8,4.734Z" transform="translate(-18.23 -11.919)" fill="url(#radial-gradient)"/>
      <g id="Group_1" data-name="Group 1" transform="translate(0 2.116)">
        <path id="Path_2" data-name="Path 2" d="M114.649,23.58a12.933,12.933,0,0,1,3.989.736,11.5,11.5,0,0,0-2.682-.359,4.154,4.154,0,0,0-4.149,4.149v9.832a6.917,6.917,0,0,0-1.308.807V27.729A4.154,4.154,0,0,1,114.649,23.58Z" transform="translate(-69.6 -19.347)" fill="url(#radial-gradient-2)"/>
        <path id="Path_3" data-name="Path 3" d="M137.09,35.81a5.47,5.47,0,0,0-4.956,3.1,1.268,1.268,0,0,1-.785.66,1.187,1.187,0,0,0,.4.3,1.27,1.27,0,0,0,1.7-.59,5.479,5.479,0,0,1,5.816-3.032,1.314,1.314,0,0,1-.217-.089A5.52,5.52,0,0,0,137.09,35.81Z" transform="translate(-81.207 -26.156)" fill="url(#radial-gradient-3)"/>
        <path id="Path_4" data-name="Path 4" d="M128.13,88.737A8.136,8.136,0,0,0,132.377,91a8.186,8.186,0,0,1-2.992-1.942A1.267,1.267,0,0,0,128.13,88.737Z" transform="translate(-79.415 -55.594)" fill="url(#radial-gradient-4)"/>
        <path id="Path_5" data-name="Path 5" d="M153.8,73.7a1.217,1.217,0,0,0-.359.058,1.257,1.257,0,0,1,.324.838,10.768,10.768,0,0,1-9.353,10.661,5.517,5.517,0,0,0,4.535,4.26,5.534,5.534,0,0,1-3.227-3.883,10.765,10.765,0,0,0,9.353-10.661A1.275,1.275,0,0,0,153.8,73.7Z" transform="translate(-88.478 -47.25)" fill="url(#radial-gradient-5)"/>
        <path id="Path_6" data-name="Path 6" d="M170.237,121.42a10.7,10.7,0,0,1-6.707,2.668,1.265,1.265,0,0,0,.913.39,10.676,10.676,0,0,0,6.294-2.048A8.559,8.559,0,0,0,170.237,121.42Z" transform="translate(-99.123 -73.817)" fill="url(#radial-gradient-6)"/>
        <path id="Path_7" data-name="Path 7" d="M139.586,24.92a7.625,7.625,0,0,1,.869.443,8.476,8.476,0,0,0-2.677-1.835c-.953-.758-1.924-1.458-2.9-2.1a23.113,23.113,0,0,0-4.739-1.782A30.783,30.783,0,0,1,139.586,24.92Z" transform="translate(-80.534 -17.159)" fill="url(#radial-gradient-7)"/>
        <path id="Path_8" data-name="Path 8" d="M136.859,68.453a1.263,1.263,0,0,1-.909,1.21,1.26,1.26,0,0,0,.949.43,1.272,1.272,0,0,0,1.272-1.272,8.208,8.208,0,0,1,9.774-8.063,8.194,8.194,0,0,0-11.086,7.7Z" transform="translate(-83.768 -39.751)" fill="url(#radial-gradient-8)"/>
        <path id="Path_9" data-name="Path 9" d="M104.651,18.5a6.332,6.332,0,0,1,.465-.567,6.822,6.822,0,0,0-1.529-1.095,6.984,6.984,0,0,1,5.293-2.429,14.591,14.591,0,0,1,3.444.457,15.944,15.944,0,0,0-4.752-.829,6.984,6.984,0,0,0-5.293,2.429A6.735,6.735,0,0,1,104.651,18.5Z" transform="translate(-65.023 -14.036)" fill="url(#radial-gradient-9)"/>
        <path id="Path_10" data-name="Path 10" d="M127.734,156.01a1.272,1.272,0,0,0,1.272-1.272,8.222,8.222,0,0,1,8.214-8.214,1.272,1.272,0,1,0,0-2.544c-.133,0-.266.009-.395.013a1.27,1.27,0,0,1-.913,2.154,8.222,8.222,0,0,0-8.214,8.214,1.263,1.263,0,0,1-.909,1.21A1.243,1.243,0,0,0,127.734,156.01Z" transform="translate(-78.669 -86.377)" fill="url(#radial-gradient-10)"/>
        <path id="Path_11" data-name="Path 11" d="M111.741,105.4c0-.359-.018-.709-.049-1.064a1.222,1.222,0,0,0,.049-.341V62.053A4.154,4.154,0,0,1,115.89,57.9a1.272,1.272,0,0,0,0-2.544c-.133,0-.262.009-.395.018a1.255,1.255,0,0,1,.355.878,1.272,1.272,0,0,1-1.272,1.272,4.154,4.154,0,0,0-4.149,4.149v41.946a1.246,1.246,0,0,1-.049.341c.031.35.049.7.049,1.064A9.581,9.581,0,0,0,118.1,114.4,9.575,9.575,0,0,1,111.741,105.4Z" transform="translate(-69.533 -37.04)" fill="url(#radial-gradient-11)"/>
        <path id="Path_12" data-name="Path 12" d="M136.794,187.93a12.106,12.106,0,0,1-10.594,2.726,11.976,11.976,0,0,0,7.895-.027A12.674,12.674,0,0,0,136.794,187.93Z" transform="translate(-78.34 -110.846)" fill="url(#radial-gradient-12)"/>
        <path id="Path_13" data-name="Path 13" d="M123.264,124.985a8.176,8.176,0,0,0-2.434-.505,1.26,1.26,0,0,0,.873.35A8.583,8.583,0,0,1,123.264,124.985Z" transform="translate(-75.351 -75.521)" fill="url(#radial-gradient-13)"/>
        <path id="Path_14" data-name="Path 14" d="M154.57,112.51a8.205,8.205,0,0,1-1.56-.155,8,8,0,0,0,2.868.527,1.272,1.272,0,1,0,0-2.544c-.146,0-.288-.009-.43-.018a1.27,1.27,0,0,1-.878,2.19Z" transform="translate(-93.266 -67.638)" fill="url(#radial-gradient-14)"/>
        <path id="Path_15" data-name="Path 15" d="M137.191,99.747c-.009-.049-.022-.1-.031-.146a10.736,10.736,0,0,1-1.13-.191A11.959,11.959,0,0,0,137.191,99.747Z" transform="translate(-83.813 -61.564)" fill="url(#radial-gradient-15)"/>
        <path id="Path_16" data-name="Path 16" d="M135.041,130.222c0,.062,0,.124,0,.186a10.476,10.476,0,0,1,1.3-.093,10.764,10.764,0,0,0-8.515-10.235A10.756,10.756,0,0,1,135.041,130.222Z" transform="translate(-79.242 -73.071)" fill="url(#radial-gradient-16)"/>
        <path id="Path_17" data-name="Path 17" d="M97.269,72.88a4.015,4.015,0,0,1,.461.027,4.1,4.1,0,0,0-1.33-.377A1.234,1.234,0,0,0,97.269,72.88Z" transform="translate(-61.75 -46.599)" fill="url(#radial-gradient-17)"/>
        <path id="Path_18" data-name="Path 18" d="M84.131,23.58c-2.549,0-5.74,1.121-8.981,3.1a8.091,8.091,0,0,1,5.381,4.313,1.27,1.27,0,0,1-.59,1.7,1.109,1.109,0,0,1-.191.071,1.269,1.269,0,0,0,2.092-1.4,8.1,8.1,0,0,0-5.381-4.313c3.24-1.977,6.432-3.1,8.981-3.1a4.018,4.018,0,0,1,.461.027A4.2,4.2,0,0,0,84.131,23.58Z" transform="translate(-49.919 -19.347)" fill="url(#radial-gradient-18)"/>
        <path id="Path_19" data-name="Path 19" d="M77.09,192.823a12.028,12.028,0,0,0,6.224.474,12.72,12.72,0,0,0,1.835-1.427,12.027,12.027,0,0,1-5.359,1.259A11.892,11.892,0,0,1,77.09,192.823Z" transform="translate(-50.999 -113.039)" fill="url(#radial-gradient-19)"/>
        <path id="Path_20" data-name="Path 20" d="M48.7,146.63A1.25,1.25,0,0,0,47.9,146a9.554,9.554,0,0,1-6.884-11.148,1.273,1.273,0,0,0-.727-1.414,8.228,8.228,0,0,1-4.885-7.5,8.066,8.066,0,0,1,.873-3.684,10.624,10.624,0,0,1-1.068-.816,8.208,8.208,0,0,0,3.772,11.631,1.268,1.268,0,0,1,.727,1.414A9.554,9.554,0,0,0,46.6,145.624a1.279,1.279,0,0,1,.793.634,9.557,9.557,0,0,0,6.507,4.92A9.582,9.582,0,0,1,48.7,146.63Z" transform="translate(-27.065 -73.823)" fill="url(#radial-gradient-20)"/>
        <path id="Path_21" data-name="Path 21" d="M104.178,182.921a12.5,12.5,0,0,0,1.574-2.03,11.545,11.545,0,0,1-.771-1.321,12.175,12.175,0,0,1-2.11,2.979,12.742,12.742,0,0,0,7.872,5.576A12.822,12.822,0,0,1,104.178,182.921Z" transform="translate(-65.352 -106.191)" fill="url(#radial-gradient-21)"/>
        <path id="Path_22" data-name="Path 22" d="M102.638,68.8v-.434a6.492,6.492,0,0,0-1.7-.541A6.6,6.6,0,0,1,102.638,68.8Z" transform="translate(-64.277 -43.977)" fill="url(#radial-gradient-22)"/>
        <path id="Path_23" data-name="Path 23" d="M62.095,36.165a1.36,1.36,0,0,1-.222.089,5.506,5.506,0,0,0-2.558,7.877,10.558,10.558,0,0,1,1.192.151,5.481,5.481,0,0,1,2.673-7.651,1.36,1.36,0,0,0,.222-.089,5.406,5.406,0,0,1,2.81-.288,5.54,5.54,0,0,0-2.168-.443A5.478,5.478,0,0,0,62.095,36.165Z" transform="translate(-40.672 -26.156)" fill="url(#radial-gradient-23)"/>
        <path id="Path_24" data-name="Path 24" d="M34.068,90.365a12.681,12.681,0,0,1-8.755-13.622A11.29,11.29,0,0,1,19.538,66.9a11.173,11.173,0,0,1,1.99-6.4,11.265,11.265,0,0,1,1.365-14.415,11.123,11.123,0,0,1-.51-3.347,11.3,11.3,0,0,1,9.131-11.073,8.444,8.444,0,0,1,4.517-10.9c5.009-3.989,10.488-6.365,14.69-6.365a7.191,7.191,0,0,1,1.246.115,6.872,6.872,0,0,0-2.553-.492c-4.2,0-9.681,2.376-14.69,6.365a8.457,8.457,0,0,0-5.12,7.757,8.359,8.359,0,0,0,.6,3.138,11.273,11.273,0,0,0-8.622,14.42A11.265,11.265,0,0,0,20.22,60.126a11.162,11.162,0,0,0-1.99,6.4,11.29,11.29,0,0,0,5.776,9.841,12.588,12.588,0,0,0-.093,1.529A12.715,12.715,0,0,0,32.76,89.989a12.674,12.674,0,0,0,8.09,5.962A12.63,12.63,0,0,1,34.068,90.365Z" transform="translate(-18.23 -14.03)" fill="url(#radial-gradient-24)"/>
        <path id="Path_25" data-name="Path 25" d="M92.89,141.85a1.423,1.423,0,0,0-.27-.04,12.118,12.118,0,0,1,5.386,3.945V144.7A12.048,12.048,0,0,0,92.89,141.85Z" transform="translate(-59.645 -85.169)" fill="url(#radial-gradient-25)"/>
        <path id="Path_26" data-name="Path 26" d="M37.042,72.993a8.206,8.206,0,0,0,3.7,14.362,8.2,8.2,0,0,1-2.394-13.99,1.268,1.268,0,0,0,.363-1.454,8.208,8.208,0,0,1,9.171-11.144A8.2,8.2,0,0,0,37.406,71.534,1.273,1.273,0,0,1,37.042,72.993Z" transform="translate(-27.06 -39.757)" fill="url(#radial-gradient-26)"/>
        <path id="Path_27" data-name="Path 27" d="M77.231,125.66c-.133,0-.262.013-.39.018a1.27,1.27,0,0,1-.918,2.15,8.222,8.222,0,0,0-8.214,8.214,8.088,8.088,0,0,0,.044.869,10.766,10.766,0,0,1,6.729,9.969,1.263,1.263,0,0,1-.909,1.21,1.259,1.259,0,0,0,.949.43,1.272,1.272,0,0,0,1.272-1.272,10.766,10.766,0,0,0-6.729-9.969,8.23,8.23,0,0,1,8.169-9.083,1.268,1.268,0,1,0,0-2.535Z" transform="translate(-45.777 -76.178)" fill="url(#radial-gradient-27)"/>
        <path id="Path_28" data-name="Path 28" d="M75.863,102.743c.009-.035.018-.066.027-.1-.293-.04-.576-.093-.86-.151C75.3,102.583,75.584,102.667,75.863,102.743Z" transform="translate(-49.852 -63.278)" fill="url(#radial-gradient-28)"/>
        <path id="Path_29" data-name="Path 29" d="M79.83,91.794a1.267,1.267,0,0,1-.04,1.729,10.642,10.642,0,0,1-6.5,3.16,8.055,8.055,0,0,1-7.558,6.822,1.265,1.265,0,0,0,.913.39,8.055,8.055,0,0,0,7.952-6.84A10.677,10.677,0,0,0,81.1,93.9a1.266,1.266,0,0,0-1.268-2.1Z" transform="translate(-44.675 -57.294)" fill="url(#radial-gradient-29)"/>
        <path id="Path_30" data-name="Path 30" d="M52.322,123.844a1.272,1.272,0,0,0-1.272-1.272c-.146,0-.288-.013-.434-.022a1.254,1.254,0,0,1,.395.918,1.272,1.272,0,0,1-1.272,1.272,10.546,10.546,0,0,1-2.287-.257,10.622,10.622,0,0,0,3.595.629A1.272,1.272,0,0,0,52.322,123.844Z" transform="translate(-34.498 -74.446)" fill="url(#radial-gradient-30)"/>
        <path id="Path_31" data-name="Path 31" d="M62.144,155.545a8.176,8.176,0,0,0-2.434-.505,1.26,1.26,0,0,0,.873.35A8.581,8.581,0,0,1,62.144,155.545Z" transform="translate(-41.323 -92.535)" fill="url(#radial-gradient-31)"/>
        <path id="Path_32" data-name="Path 32" d="M67.02,55.99a10.765,10.765,0,0,1,7.079,10.1,1.263,1.263,0,0,1-.909,1.21,1.259,1.259,0,0,0,.949.43,1.272,1.272,0,0,0,1.272-1.272A10.769,10.769,0,0,0,67.02,55.99Z" transform="translate(-45.393 -37.39)" fill="url(#radial-gradient-32)"/>
        <path id="Path_33" data-name="Path 33" d="M62.5,78.032a1.272,1.272,0,0,0-1.272-1.272,1.217,1.217,0,0,0-.359.058,1.257,1.257,0,0,1,.324.838,8.223,8.223,0,0,0,6.653,8.059A8.217,8.217,0,0,1,62.5,78.032Z" transform="translate(-41.969 -48.954)" fill="url(#radial-gradient-33)"/>
      </g>
      <path id="Path_34" data-name="Path 34" d="M96.373,22.12A42.557,42.557,0,0,0,79.68,25.768c5.355-1.715,20.9,2.682,17.775,7.261l2.846-6.29C101.1,24.975,99.463,23.255,96.373,22.12Z" transform="translate(-52.441 -16.418)" fill="#221f1f" opacity="0.6"/>
      <g id="Group_2" data-name="Group 2" transform="translate(14.577 33.047)" opacity="0.6">
        <path id="Path_35" data-name="Path 35" d="M59.33,83.81Z" transform="translate(-55.689 -83.81)" fill="#221f1f"/>
        <path id="Path_36" data-name="Path 36" d="M106.774,115.145C90,111.47,76.694,107.02,67.634,102.2q-.938-.5-1.813-1c-.878-.505-1.707-1.011-2.491-1.525q-.785-.512-1.5-1.024c-.723-.514-1.392-1.033-2.017-1.556-.417-.346-.811-.7-1.184-1.046-.186-.173-.368-.35-.545-.523a18.622,18.622,0,0,1-1.432-1.582c-.284-.355-.55-.7-.789-1.059a10.872,10.872,0,0,1-1.689-3.732A8.1,8.1,0,0,1,54,88.079c-.018-.177-.027-.355-.031-.536a8.426,8.426,0,0,1,.789-3.732h0L51.906,90.1c-5.133,11.339,15,23.223,52.018,31.335.944.208,1.175.771.811,1.578l2.846-6.29C107.949,115.916,107.718,115.353,106.774,115.145Z" transform="translate(-51.115 -83.81)" fill="#221f1f"/>
      </g>
      <g id="Group_3" data-name="Group 3" transform="translate(12.627 0)">
        <path id="Path_37" data-name="Path 37" d="M108.409,18.564l-2.85,6.29c1.277-2.824-3.688-5.536-10.869-5.909a34.877,34.877,0,0,0-7.739.488l2.846-6.29a34.877,34.877,0,0,1,7.739-.488C104.721,13.028,109.685,15.741,108.409,18.564Z" transform="translate(-69.115 -11.125)" fill="url(#radial-gradient-34)"/>
        <path id="Path_38" data-name="Path 38" d="M100.986,12.656a34.877,34.877,0,0,0-7.739.488l-.106.23a34.978,34.978,0,0,1,6.7-.337c7.181.372,12.146,3.085,10.869,5.909L108.916,22.9a2.094,2.094,0,0,1,.089,1.95l2.85-6.29C113.131,15.741,108.167,13.028,100.986,12.656Z" transform="translate(-72.561 -11.125)" fill="url(#radial-gradient-35)"/>
        <path id="Path_39" data-name="Path 39" d="M103.186,104.843l-2.85,6.29c.363-.807.137-1.37-.811-1.578-37.013-8.112-57.151-20-52.018-31.335l2.85-6.29h0a8.439,8.439,0,0,0-.789,3.732c0,.177.013.355.031.536a8.1,8.1,0,0,0,.168,1.068A10.946,10.946,0,0,0,51.456,81c.239.355.505.709.789,1.059a21,21,0,0,0,1.432,1.582c.177.177.355.35.545.523.372.35.767.7,1.184,1.046q.938.778,2.017,1.556c.479.341.98.687,1.5,1.024q1.177.765,2.491,1.525.878.505,1.813,1C72.29,95.14,85.6,99.59,102.37,103.265,103.323,103.473,103.553,104.036,103.186,104.843Z" transform="translate(-46.716 -44.149)" fill="url(#radial-gradient-36)"/>
        <path id="Path_40" data-name="Path 40" d="M100.939,126.476a2.128,2.128,0,0,0-.412-.142C71.173,119.9,52.436,111.095,48.5,102.07c4.88,8.657,23.285,17.035,51.5,23.214C100.784,125.461,101.067,125.882,100.939,126.476Z" transform="translate(-47.709 -60.928)" fill="url(#radial-gradient-37)"/>
        <path id="Path_41" data-name="Path 41" d="M126.655,153.608c-.173.328-.341.656-.523.98l-.08.146c-.115.2-.235.408-.355.607-.1.177-.2.355-.306.528-.164.275-.337.545-.51.816-.1.151-.191.306-.288.457-.222.337-.448.669-.678,1-.053.08-.106.16-.16.235-.288.408-.585.807-.887,1.206-.089.115-.182.226-.27.341-.217.279-.434.559-.66.829-.12.146-.244.288-.368.434-.2.235-.4.47-.6.7-.137.155-.279.306-.417.461-.2.213-.39.43-.594.638-.151.155-.3.31-.452.461-.2.2-.4.4-.6.6-.155.155-.315.306-.474.457l-.612.572c-.164.151-.328.3-.5.443-.208.182-.417.363-.629.545-.168.146-.341.288-.514.43-.213.177-.43.35-.652.523-.173.137-.35.275-.527.408-.222.168-.448.337-.674.5-.177.129-.355.262-.536.39-.23.164-.47.324-.7.483-.177.12-.359.244-.541.363-.244.16-.5.315-.745.474-.177.111-.35.222-.532.328-.266.16-.536.315-.807.47-.168.1-.332.2-.5.288-.315.177-.634.341-.953.51-.129.066-.253.137-.381.2-.448.23-.9.452-1.361.665-.093.044-.186.08-.275.124-.368.168-.74.337-1.117.492-.168.071-.341.137-.51.208-.3.124-.6.248-.909.363-.2.075-.39.142-.585.213-.284.1-.572.208-.86.306-.208.071-.417.137-.625.2-.279.089-.559.182-.842.266-.217.066-.434.124-.652.186-.279.08-.559.155-.838.231-.222.058-.448.115-.674.168l-.842.2-.683.146c-.284.058-.567.115-.856.168-.231.044-.461.084-.691.124-.288.049-.576.093-.869.137-.23.035-.461.066-.691.1-.3.04-.594.071-.891.106-.231.027-.461.053-.691.075-.306.031-.612.053-.918.075-.226.018-.452.035-.678.049-.319.018-.643.031-.966.04-.213.009-.43.018-.643.022-.359.009-.718,0-1.077,0-.182,0-.363,0-.545,0-.545-.009-1.09-.027-1.64-.053a44.5,44.5,0,0,1-23.179-7.948l2.846-6.29h0a44.516,44.516,0,0,0,7.966,4.419,44.017,44.017,0,0,0,5.833,2.03c1,.27,2.021.51,3.05.714a45,45,0,0,0,6.33.785c.55.027,1.095.044,1.64.053.182,0,.363,0,.545,0,.359,0,.723,0,1.077,0,.217,0,.43-.013.643-.022.324-.013.647-.022.966-.04.226-.013.452-.031.678-.049.306-.022.612-.044.918-.075.23-.022.461-.049.691-.075.3-.031.594-.066.887-.106.235-.031.465-.066.7-.1.288-.044.581-.089.869-.137.23-.04.461-.08.691-.124.284-.053.572-.111.855-.168l.683-.146c.284-.062.563-.129.847-.2.222-.053.448-.111.669-.168.284-.075.563-.151.842-.23l.652-.186c.284-.084.563-.177.842-.266.208-.066.417-.133.625-.2.288-.1.572-.2.86-.306l.585-.213c.306-.115.607-.239.9-.363.168-.071.341-.137.51-.208.372-.16.74-.324,1.108-.492.093-.044.186-.084.279-.124.461-.213.913-.434,1.365-.665.124-.066.248-.133.377-.2.324-.168.643-.337.957-.514.168-.093.332-.191.5-.288.27-.155.541-.31.807-.47.177-.106.355-.222.532-.332.248-.155.5-.31.74-.47.182-.12.359-.244.541-.363.235-.16.47-.319.7-.483.182-.129.359-.257.536-.39.226-.164.452-.332.674-.5.177-.137.355-.27.527-.412.217-.173.434-.346.647-.519.173-.142.346-.284.514-.43.213-.177.421-.363.629-.545.168-.146.332-.293.5-.443.2-.186.408-.377.612-.567.16-.151.319-.306.479-.457.2-.2.4-.4.6-.6.151-.155.3-.306.452-.465.2-.208.395-.426.59-.638.142-.155.284-.306.421-.461.2-.231.4-.465.6-.7l.372-.439c.222-.27.439-.55.656-.825.089-.115.186-.23.275-.346.3-.395.6-.8.887-1.2.058-.08.111-.164.168-.244.23-.328.457-.66.674-.993.1-.151.191-.306.288-.457.173-.27.341-.536.505-.811.106-.173.2-.355.31-.527.146-.248.293-.5.43-.754.182-.324.35-.652.523-.984l.253-.479c.248-.492.488-.993.718-1.494l-2.846,6.29c-.23.505-.47,1-.718,1.494C126.828,153.289,126.739,153.448,126.655,153.608Z" transform="translate(-56.071 -85.024)" fill="url(#radial-gradient-38)"/>
        <path id="Path_42" data-name="Path 42" d="M69.14,183.316l.368-.816h0a44.516,44.516,0,0,0,7.966,4.419,44.012,44.012,0,0,0,5.833,2.03c1,.27,2.021.51,3.05.714a44.986,44.986,0,0,0,6.33.785c.55.027,1.095.044,1.64.053.182,0,.363,0,.545,0,.359,0,.723,0,1.077,0,.217,0,.43-.013.643-.022.324-.013.647-.022.966-.04.226-.013.452-.031.678-.049.306-.022.612-.044.918-.075.23-.022.461-.049.691-.075.3-.031.594-.066.887-.106.235-.031.465-.066.7-.1.288-.044.581-.089.869-.137.23-.04.461-.08.691-.124.191-.035.381-.075.572-.111-.084.018-.164.04-.248.058l-.683.146c-.284.058-.567.115-.856.168-.23.044-.461.084-.691.124-.288.049-.576.093-.869.137-.231.035-.461.067-.7.1-.293.04-.59.071-.887.106-.23.027-.461.053-.691.075-.306.027-.612.053-.918.075-.226.018-.452.035-.678.049-.319.018-.643.031-.966.04-.213.009-.43.018-.643.022-.359.009-.718,0-1.077,0-.182,0-.363,0-.545,0q-.818-.013-1.636-.053a44.347,44.347,0,0,1-6.33-.785c-1.028-.2-2.048-.443-3.05-.714a44.058,44.058,0,0,1-12.957-5.9Z" transform="translate(-59.2 -105.706)" fill="url(#radial-gradient-39)"/>
        <path id="Path_43" data-name="Path 43" d="M86.412,9.315c23.87,1.237,42.634,21.193,41.907,44.58s-20.665,41.335-44.535,40.1A44.5,44.5,0,0,1,60.6,86.045a31.04,31.04,0,0,0,4.1.474c21.046,1.09,47.682-16.747,41.259-18.152-55.976-12.261-73.343-33.161-23.1-47.736,12.314-3.573,6.534-9.291-4.131-9.841a34.877,34.877,0,0,0-7.739.488A43.528,43.528,0,0,1,86.412,9.315Z" transform="translate(-50.301 -9.256)" fill="url(#radial-gradient-40)"/>
        <path id="Path_44" data-name="Path 44" d="M119.535,124.659c-13.919-3.05-25.444-6.631-34.145-10.519,8.4,4.362,20.271,8.409,35.049,11.84C120.648,125.31,120.377,124.845,119.535,124.659Z" transform="translate(-68.247 -67.648)" fill="url(#radial-gradient-41)"/>
      </g>
      <path id="Path_45" data-name="Path 45" d="M94.084,90.462A35.5,35.5,0,1,1,94.053,40,35.684,35.684,0,0,1,94.084,90.462Z" transform="translate(-26.539 -20.707)" fill="url(#radial-gradient-42)"/>
      <path id="Path_46" data-name="Path 46" d="M80.147,94.722c10.35-2.841,19.872-8.107,24.265-11.884a9.969,9.969,0,0,1,.093,1.263,9.576,9.576,0,0,1-7.079,9.229,1.279,1.279,0,0,0-.793.634,9.552,9.552,0,0,1-16.485.758Zm-6.813,1.467a42.977,42.977,0,0,1-8.608.5,31.035,31.035,0,0,1-4.1-.474A44.81,44.81,0,0,0,65.2,99a9.425,9.425,0,0,0,1.281.089A9.576,9.576,0,0,0,73.334,96.189ZM100.44,70.55a1.271,1.271,0,0,0,1.268,1.272,10.708,10.708,0,0,0,7.1-2.691,8.185,8.185,0,0,1-1.875,10.443c.053-.519-.231-.891-.949-1.046q-6.922-1.516-13.032-3.2a10.771,10.771,0,0,0-10.213-7.4,1.27,1.27,0,1,0,0,2.54,8.2,8.2,0,0,1,7.008,3.954c-4.02-1.175-7.748-2.4-11.157-3.666V46.166a4.154,4.154,0,0,1,4.149-4.149,1.272,1.272,0,0,0,0-2.544,6.645,6.645,0,0,0-4.149,1.449V32.1q2.055-.665,4.286-1.312c3.4-.984,5.408-2.132,6.33-3.289a28.267,28.267,0,0,1,2.518,1.365,8.091,8.091,0,0,0-5.381,4.313,1.271,1.271,0,1,0,2.287,1.108,5.5,5.5,0,0,1,6.906-2.744,1.36,1.36,0,0,0,.222.089,5.506,5.506,0,0,1,2.558,7.877A10.766,10.766,0,0,0,88.255,50.235a1.272,1.272,0,0,0,2.544,0,8.214,8.214,0,1,1,15.825,3.081,1.27,1.27,0,0,0,.363,1.454,8.211,8.211,0,0,1-5.262,14.517A1.265,1.265,0,0,0,100.44,70.55ZM93.623,59.535a10.765,10.765,0,0,0,9.353-10.661,1.27,1.27,0,0,0-2.54,0,8.216,8.216,0,0,1-14.083,5.749A1.269,1.269,0,1,0,84.54,56.4a10.642,10.642,0,0,0,6.5,3.161A8.058,8.058,0,0,0,99,66.4a1.27,1.27,0,1,0,0-2.54A5.508,5.508,0,0,1,93.623,59.535Zm-23.795,41.6c.239.093.483.186.727.275a13.244,13.244,0,0,0,1.29-1.042A12.375,12.375,0,0,1,69.828,101.131Zm2.079-53.693a1.272,1.272,0,0,1,0-2.544,6.645,6.645,0,0,1,4.149,1.449v-13.4c-6.906,2.394-12.163,4.925-15.882,7.536a10.762,10.762,0,0,1,6.232,9.747,1.27,1.27,0,0,1-2.54,0,8.22,8.22,0,0,0-6.037-7.912c-7.77,6.826-5.51,14.1,4.832,20.8a5.527,5.527,0,0,0,1.082-2.234,10.765,10.765,0,0,1-9.353-10.661,1.27,1.27,0,1,1,2.54,0,8.216,8.216,0,0,0,14.083,5.749,1.269,1.269,0,0,1,1.813,1.778,10.642,10.642,0,0,1-6.5,3.16,8,8,0,0,1-1.472,3.542,84.863,84.863,0,0,0,11.215,5.319V51.587A4.168,4.168,0,0,0,71.907,47.438Z" transform="translate(-37.696 -19.413)" fill="url(#radial-gradient-43)"/>
    </g>
    <path id="Path_47" data-name="Path 47" d="M626.759,65.99l.4,2.527c1.68-2.7,3.945-3.1,6.157-3.1A8.288,8.288,0,0,1,638.94,67.5l-2.433,4.694a5.4,5.4,0,0,0-3.9-1.418c-2.837,0-5.448,1.507-5.448,5.541V87.835H621.75V65.99ZM645.6,78.841c.355,2.7,2.7,4.654,6.512,4.654,1.995,0,4.606-.754,5.847-2.039l3.457,3.413c-2.3,2.394-6.073,3.546-9.393,3.546-7.531,0-12.008-4.654-12.008-11.654,0-6.645,4.521-11.432,11.609-11.432,7.31,0,11.875,4.521,11.033,13.515H645.6Zm11.875-4.477c-.355-2.837-2.571-4.255-5.674-4.255-2.925,0-5.319,1.418-6.117,4.255Z" transform="translate(-335.998 -31.218)" fill="url(#linear-gradient)"/>
    <g id="Group_5" data-name="Group 5" transform="translate(115.913 25.601)">
      <path id="Path_48" data-name="Path 48" d="M257.829,74.087a11.186,11.186,0,0,1-7.974,3.276c-6.157,0-11.255-4.251-11.255-11.166s4.92-11.161,11.259-11.161a11.379,11.379,0,0,1,7.974,3.28l-1.418,1.374a9.274,9.274,0,0,0-6.556-2.615c-4.965,0-9.127,3.236-9.127,9.127s4.162,9.127,9.127,9.127a9.263,9.263,0,0,0,6.512-2.7Zm3.87-7.841c0-6.959,4.96-11.388,11.122-11.388s11.117,4.428,11.117,11.388-4.96,11.21-11.117,11.21S261.7,73.2,261.7,66.246Zm20.116,0c0-5.674-4.034-9.349-8.994-9.349s-9,3.679-9,9.349a9,9,0,1,0,17.992,0Zm9.278-10.989v3.9a8.705,8.705,0,0,1,7.8-4.3c5.851,0,9.88,3.59,9.88,9.659V77.146H306.6V64.561c0-4.96-3.054-7.62-7.8-7.575a7.608,7.608,0,0,0-7.669,7.974V77.146H288.96V55.257Zm41.3,18.83a11.186,11.186,0,0,1-7.974,3.276c-6.157,0-11.255-4.251-11.255-11.166s4.92-11.166,11.255-11.166a11.379,11.379,0,0,1,7.974,3.28l-1.418,1.374a9.274,9.274,0,0,0-6.556-2.615c-4.965,0-9.127,3.236-9.127,9.127s4.167,9.131,9.131,9.131a9.263,9.263,0,0,0,6.512-2.7Zm4.1-7.886a11,11,0,0,1,11.117-11.3c6.157,0,11.654,3.763,10.811,12.318H338.7a8.608,8.608,0,0,0,8.905,8.107c2.881,0,6.25-1.152,7.886-3.325l1.551,1.241c-2.123,2.793-5.94,4.211-9.437,4.211C341.452,77.456,336.491,73.156,336.491,66.2Zm19.978-.887c-.044-5.408-3.586-8.418-8.861-8.418-4.521,0-8.418,3.059-8.905,8.418Zm7.589,20.958V55.257h2.128v5.186a10.429,10.429,0,0,1,9.482-5.5C381.6,55.168,386.3,59.158,386.3,66.2c0,7.354-4.965,11.343-11.122,11.343a9.872,9.872,0,0,1-9.038-5.452v14.18ZM384.134,66.2c0-6.157-3.985-9.171-8.95-9.171-5.093,0-8.861,3.856-8.861,9.216s3.852,9.216,8.861,9.216C380.145,75.461,384.134,72.358,384.134,66.2Zm12.509-17.549v6.6h7.447V57.07h-7.447V70.408c0,2.97.621,5.053,4.034,5.053a8.1,8.1,0,0,0,3.364-.887l.754,1.773a9.553,9.553,0,0,1-4.118,1.108c-4.654,0-6.157-2.748-6.157-7.048V57.074h-4.654V55.257h4.654V48.874Zm75.489,25.435a11.186,11.186,0,0,1-7.974,3.276C458,77.363,452.9,73.112,452.9,66.2s4.92-11.166,11.255-11.166a11.379,11.379,0,0,1,7.974,3.28l-1.418,1.374a9.274,9.274,0,0,0-6.556-2.615c-4.965,0-9.127,3.236-9.127,9.127s4.162,9.131,9.127,9.131a9.263,9.263,0,0,0,6.512-2.7Zm25.492-18.83V77.146h-2.172V72.491a10.221,10.221,0,0,1-8.95,5,10.947,10.947,0,0,1-11.117-11.3A10.875,10.875,0,0,1,486.5,54.987a9.923,9.923,0,0,1,8.95,5.053V55.252h2.172ZM477.553,66.2a8.786,8.786,0,0,0,8.945,9.171c12.185,0,12.185-18.3,0-18.3A8.758,8.758,0,0,0,477.553,66.2ZM505.7,46.13V77.146h-2.172V46.13Zm8.24,0V77.146h-2.172V46.13Z" transform="translate(-238.6 -46.13)" fill="url(#linear-gradient-2)"/>
      <path id="Path_49" data-name="Path 49" d="M348.361,147.51v4.539a3.155,3.155,0,0,1,2.961-1.676,3.685,3.685,0,0,1,.018,7.367,3.368,3.368,0,0,1-2.979-1.689v1.574h-.691V147.51Zm.013,6.534a2.856,2.856,0,0,0,2.921,3.005,3,3,0,0,0,0-6A2.86,2.86,0,0,0,348.375,154.044Zm11.042.013a3.588,3.588,0,0,1,3.626-3.684,3.337,3.337,0,0,1,3.528,4.016h-6.432a2.812,2.812,0,0,0,2.9,2.646,3.376,3.376,0,0,0,2.576-1.082l.505.4a3.914,3.914,0,0,1-3.076,1.374A3.507,3.507,0,0,1,359.417,154.057Zm6.52-.288a2.617,2.617,0,0,0-2.89-2.744,2.854,2.854,0,0,0-2.9,2.744Zm11.445-3.28L373.034,160.6h-.749l1.316-3.063-2.859-7.052h.762l1.662,4.22.838,2.066.824-2.079,1.791-4.207Zm4.224,3.586a3.627,3.627,0,1,1,7.252,0,3.626,3.626,0,1,1-7.252,0Zm6.56,0a2.937,2.937,0,1,0-5.869,0,2.935,2.935,0,1,0,5.869,0Zm6.2-3.586v1.272a2.836,2.836,0,0,1,2.544-1.4,2.979,2.979,0,0,1,3.223,3.152v4.118h-.7v-4.1a2.285,2.285,0,0,0-2.544-2.469,2.478,2.478,0,0,0-2.5,2.6v3.976h-.709V150.5h.692Zm17.651-2.979v10.115h-.692v-1.574a3.368,3.368,0,0,1-2.979,1.689,3.685,3.685,0,0,1,.013-7.367,3.166,3.166,0,0,1,2.965,1.676V147.51Zm-6.547,6.547a2.771,2.771,0,0,0,2.917,2.992,3,3,0,0,0,0-6A2.766,2.766,0,0,0,405.472,154.057Zm19.858-5.9a.572.572,0,0,1-1.144,0A.572.572,0,0,1,425.331,148.162Zm-.94,2.3v7.168h.7v-7.168Zm16.49,7.163v-4.278a2.208,2.208,0,0,0-2.283-2.34,2.258,2.258,0,0,0-2.3,2.385v4.233h-.7v-4.233a2.293,2.293,0,1,0-4.583,0v4.233h-.7v-7.137h.665l.013,1.184a2.514,2.514,0,0,1,2.327-1.33,2.631,2.631,0,0,1,2.646,1.764,2.762,2.762,0,0,1,2.646-1.764,2.873,2.873,0,0,1,2.992,3.005v4.278Zm12.753-7.137v7.137h-.7v-1.516a3.336,3.336,0,0,1-2.921,1.631,3.671,3.671,0,0,1,0-7.341,3.244,3.244,0,0,1,2.921,1.649v-1.56Zm-6.547,3.568a2.87,2.87,0,0,0,2.921,2.992c3.976,0,3.976-5.971,0-5.971A2.862,2.862,0,0,0,447.086,154.057Zm17.385-3.856.461.4-.691.807a3.511,3.511,0,0,1-1.042,5.461,2.614,2.614,0,0,1,1.95,2.558c0,1.924-1.5,2.846-3.4,2.846s-3.378-1.037-3.378-2.846h.7c0,1.458,1.246,2.154,2.673,2.154s2.7-.638,2.7-2.154-1.374-2.137-2.7-2.137a3.471,3.471,0,0,1,0-6.937,3.611,3.611,0,0,1,2.021.652Zm-5.359,3.639a2.614,2.614,0,0,0,2.642,2.744,2.738,2.738,0,0,0,2.673-2.744,2.568,2.568,0,0,0-2.673-2.775A2.528,2.528,0,0,0,459.112,153.84Zm11.592-5.678a.572.572,0,0,1-1.144,0A.572.572,0,0,1,470.7,148.162Zm-.94,2.3v7.168h.7v-7.168Zm6.609.027v1.272a2.836,2.836,0,0,1,2.544-1.4,2.979,2.979,0,0,1,3.223,3.152v4.118h-.7v-4.1a2.285,2.285,0,0,0-2.544-2.469,2.478,2.478,0,0,0-2.5,2.6v3.976h-.709V150.5h.692Zm17.655,0v7.137h-.7v-1.516a3.331,3.331,0,0,1-2.921,1.631,3.671,3.671,0,0,1,0-7.341,3.244,3.244,0,0,1,2.921,1.649v-1.56Zm-6.543,3.568a2.87,2.87,0,0,0,2.921,2.992c3.976,0,3.976-5.971,0-5.971A2.862,2.862,0,0,0,487.486,154.057Zm12.983-5.723v2.154h2.425v.594h-2.425v4.348c0,.971.2,1.649,1.316,1.649a2.578,2.578,0,0,0,1.095-.293l.244.581a3.108,3.108,0,0,1-1.343.359c-1.516,0-2.008-.9-2.008-2.3v-4.348h-1.516v-.594h1.516v-2.079Zm8.183-.173a.572.572,0,0,1-1.144,0A.572.572,0,0,1,508.652,148.162Zm-.94,2.3v7.168h.7v-7.168Zm5.731,3.613a3.627,3.627,0,1,1,7.252,0,3.626,3.626,0,1,1-7.252,0Zm6.565,0a2.934,2.934,0,1,0-5.864,0,2.932,2.932,0,1,0,5.864,0Zm6.206-3.586v1.272a2.824,2.824,0,0,1,2.54-1.4,2.979,2.979,0,0,1,3.223,3.152v4.118h-.7v-4.1a2.284,2.284,0,0,0-2.54-2.469,2.478,2.478,0,0,0-2.5,2.6v3.976h-.709V150.5h.692Z" transform="translate(-299.323 -102.571)" fill="#171818"/>
    </g>
  </g>
</svg>
