<svg xmlns="http://www.w3.org/2000/svg" width="12.324" height="12.325" viewBox="0 0 12.324 12.325">
  <g id="Phone" transform="translate(-1402.5 -7784)">
    <g id="Group_350" data-name="Group 350" transform="translate(-81.5 419)">
      <g id="Group_349" data-name="Group 349">
        <g id="Group_348" data-name="Group 348">
          <g id="Phone-2" data-name="Phone">
            <path id="Path_170" data-name="Path 170" d="M10.37,53.847a.955.955,0,0,0-1.444,0c-.338.335-.675.67-1.007,1.01a.2.2,0,0,1-.278.051c-.218-.119-.451-.216-.661-.346a10.473,10.473,0,0,1-2.525-2.3,5.982,5.982,0,0,1-.9-1.45.208.208,0,0,1,.051-.267c.338-.326.667-.661,1-1a.959.959,0,0,0,0-1.478c-.264-.267-.528-.528-.792-.794s-.542-.548-.817-.817a.961.961,0,0,0-1.444,0c-.34.335-.667.678-1.013,1.007a1.644,1.644,0,0,0-.516,1.109A4.7,4.7,0,0,0,.379,50.6,12.291,12.291,0,0,0,2.56,54.239a13.5,13.5,0,0,0,4.471,3.5,6.466,6.466,0,0,0,2.477.721,1.815,1.815,0,0,0,1.557-.593c.289-.323.616-.618.922-.928a.965.965,0,0,0,.006-1.47Q11.185,54.654,10.37,53.847Z" transform="translate(1483.994 7318.862)" fill="#fff"/>
          </g>
        </g>
      </g>
    </g>
  </g>
</svg>
