<svg xmlns="http://www.w3.org/2000/svg" xmlns:xlink="http://www.w3.org/1999/xlink" width="17.515" height="14.225" viewBox="0 0 17.515 14.225">
  <defs>
    <linearGradient id="linear-gradient" x1="0.5" y1="-0.269" x2="0.5" y2="1.594" gradientUnits="objectBoundingBox">
      <stop offset="0" stop-color="#f57f3d"/>
      <stop offset="1" stop-color="#d7392f"/>
    </linearGradient>
  </defs>
  <g id="twitter" transform="translate(-402 -7885.587)">
    <path id="Icon_awesome-twitter" data-name="Icon awesome-twitter" d="M15.714,6.926c.011.156.011.311.011.467A10.143,10.143,0,0,1,5.512,17.606,10.144,10.144,0,0,1,0,15.994a7.426,7.426,0,0,0,.867.044,7.189,7.189,0,0,0,4.456-1.534,3.6,3.6,0,0,1-3.356-2.489,4.527,4.527,0,0,0,.678.056,3.8,3.8,0,0,0,.945-.122A3.59,3.59,0,0,1,.711,8.426V8.382a3.615,3.615,0,0,0,1.623.456,3.595,3.595,0,0,1-1.111-4.8,10.2,10.2,0,0,0,7.4,3.756,4.052,4.052,0,0,1-.089-.822,3.593,3.593,0,0,1,6.212-2.456,7.067,7.067,0,0,0,2.278-.867,3.58,3.58,0,0,1-1.578,1.978,7.2,7.2,0,0,0,2.067-.556,7.716,7.716,0,0,1-1.8,1.856Z" transform="translate(402 7882.206)" fill="url(#linear-gradient)"/>
  </g>
</svg>
